HIERARCHY
ROOT Hips
{
	OFFSET 0.000000 89.005402 0.000000
	CHANNELS 6 Xposition Yposition Zposition Xrotation Yrotation Zrotation
	JOINT Spine
	{
		OFFSET 0.116900 10.681000 0.373400
		CHANNELS 3 Xrotation Yrotation Zrotation
		JOINT Spine1
		{
			OFFSET 0.000000 13.840401 0.053500
			CHANNELS 3 Xrotation Yrotation Zrotation
			JOINT Spine2
			{
				OFFSET 0.000000 14.712700 -0.366200
				CHANNELS 3 Xrotation Yrotation Zrotation
				JOINT Neck
				{
					OFFSET 0.000000 35.415497 -3.314200
					CHANNELS 3 Xrotation Yrotation Zrotation
					JOINT Head
					{
						OFFSET 0.000000 16.899200 1.218300
						CHANNELS 3 Xrotation Yrotation Zrotation
						JOINT HeadTop_End
						{
							OFFSET 0.000000 22.206207 2.192500
							CHANNELS 3 Xrotation Yrotation Zrotation
							End Site
							{
								OFFSET 0.000000 22.314178 0.000000
							}
						}
					}
				}
				JOINT LeftShoulder
				{
					OFFSET 12.896400 26.716293 -4.548400
					CHANNELS 3 Xrotation Yrotation Zrotation
					JOINT LeftArm
					{
						OFFSET 19.027000 -4.857010 -1.718400
						CHANNELS 3 Xrotation Yrotation Zrotation
						JOINT LeftForeArm
						{
							OFFSET 24.179897 0.000000 0.000000
							CHANNELS 3 Xrotation Yrotation Zrotation
							JOINT LeftHand
							{
								OFFSET 27.156403 0.000000 0.000000
								CHANNELS 3 Xrotation Yrotation Zrotation
								JOINT LeftHandIndex1
								{
									OFFSET 16.441200 0.000000 0.000000
									CHANNELS 3 Xrotation Yrotation Zrotation
									JOINT LeftHandIndex2
									{
										OFFSET 4.821899 0.000000 0.000000
										CHANNELS 3 Xrotation Yrotation Zrotation
										JOINT LeftHandIndex3
										{
											OFFSET 6.386497 0.000000 0.000000
											CHANNELS 3 Xrotation Yrotation Zrotation
											JOINT LeftHandIndex4
											{
												OFFSET 5.188988 0.000000 0.000000
												CHANNELS 3 Xrotation Yrotation Zrotation
												End Site
												{
													OFFSET -0.178703 5.185913 0.000177
												}
											}
										}
									}
								}
								JOINT LeftHandThumb1
								{
									OFFSET 6.534897 -5.032593 5.900300
									CHANNELS 3 Xrotation Yrotation Zrotation
									JOINT LeftHandThumb2
									{
										OFFSET 3.818176 -2.204422 2.204423
										CHANNELS 3 Xrotation Yrotation Zrotation
										JOINT LeftHandThumb3
										{
											OFFSET 3.252098 -1.877594 1.877601
											CHANNELS 3 Xrotation Yrotation Zrotation
											JOINT LeftHandThumb4
											{
												OFFSET 5.251778 -3.032120 3.032117
												CHANNELS 3 Xrotation Yrotation Zrotation
												End Site
												{
													OFFSET 0.000023 6.780014 0.000000
												}
											}
										}
									}
								}
							}
						}
					}
				}
				JOINT RightShoulder
				{
					OFFSET -12.896300 26.716293 -4.548400
					CHANNELS 3 Xrotation Yrotation Zrotation
					JOINT RightArm
					{
						OFFSET -19.027000 -4.857010 -1.718400
						CHANNELS 3 Xrotation Yrotation Zrotation
						JOINT RightForeArm
						{
							OFFSET -24.179897 0.000000 0.000000
							CHANNELS 3 Xrotation Yrotation Zrotation
							JOINT RightHand
							{
								OFFSET -27.156403 0.000000 0.000000
								CHANNELS 3 Xrotation Yrotation Zrotation
								JOINT RightHandThumb1
								{
									OFFSET -6.591202 -4.852203 5.988100
									CHANNELS 3 Xrotation Yrotation Zrotation
									JOINT RightHandThumb2
									{
										OFFSET -3.818176 -2.204422 2.204423
										CHANNELS 3 Xrotation Yrotation Zrotation
										JOINT RightHandThumb3
										{
											OFFSET -3.252098 -1.877594 1.877601
											CHANNELS 3 Xrotation Yrotation Zrotation
											JOINT RightHandThumb4
											{
												OFFSET -5.251778 -3.032120 3.032117
												CHANNELS 3 Xrotation Yrotation Zrotation
												End Site
												{
													OFFSET -0.000023 6.780014 0.000000
												}
											}
										}
									}
								}
								JOINT RightHandIndex1
								{
									OFFSET -16.029404 0.000000 0.000000
									CHANNELS 3 Xrotation Yrotation Zrotation
									JOINT RightHandIndex2
									{
										OFFSET -5.213303 0.000000 0.000000
										CHANNELS 3 Xrotation Yrotation Zrotation
										JOINT RightHandIndex3
										{
											OFFSET -6.386528 0.000000 0.000000
											CHANNELS 3 Xrotation Yrotation Zrotation
											JOINT RightHandIndex4
											{
												OFFSET -5.189026 0.000000 0.000000
												CHANNELS 3 Xrotation Yrotation Zrotation
												End Site
												{
													OFFSET 0.236702 5.183624 0.001972
												}
											}
										}
									}
								}
							}
						}
					}
				}
			}
		}
	}
	JOINT LeftUpLeg
	{
		OFFSET 14.073000 -7.904099 -1.463000
		CHANNELS 3 Xrotation Yrotation Zrotation
		JOINT LeftLeg
		{
			OFFSET -0.109806 -34.073280 4.093200
			CHANNELS 3 Xrotation Yrotation Zrotation
			JOINT LeftFoot
			{
				OFFSET 0.109806 -29.899420 -6.319000
				CHANNELS 3 Xrotation Yrotation Zrotation
				JOINT LeftToeBase
				{
					OFFSET 1.551100 -14.988700 20.535801
					CHANNELS 3 Xrotation Yrotation Zrotation
					JOINT LeftToe_End
					{
						OFFSET 0.221200 0.570800 13.248301
						CHANNELS 3 Xrotation Yrotation Zrotation
						End Site
						{
							OFFSET 0.000000 13.262435 0.000000
						}
					}
				}
			}
		}
	}
	JOINT RightUpLeg
	{
		OFFSET -13.839300 -7.904099 -1.463000
		CHANNELS 3 Xrotation Yrotation Zrotation
		JOINT RightLeg
		{
			OFFSET 0.109694 -34.073219 4.093300
			CHANNELS 3 Xrotation Yrotation Zrotation
			JOINT RightFoot
			{
				OFFSET -0.109694 -29.899384 -6.319200
				CHANNELS 3 Xrotation Yrotation Zrotation
				JOINT RightToeBase
				{
					OFFSET -1.551100 -14.988700 20.535801
					CHANNELS 3 Xrotation Yrotation Zrotation
					JOINT RightToe_End
					{
						OFFSET -0.221200 0.570900 13.248299
						CHANNELS 3 Xrotation Yrotation Zrotation
						End Site
						{
							OFFSET 0.000000 13.262440 0.000000
						}
					}
				}
			}
		}
	}
}
MOTION
Frames: 9
Frame Time: 0.033333
68.565857 75.314255 4.960023 -31.623807 -53.803036 -25.605368 9.675204 3.437122 -2.735469 10.923048 3.140075 0.060972 10.911991 3.107364 0.066010 3.805292 9.194301 -0.987647 19.237834 17.440685 -3.836298 -0.000000 0.000001 0.000000 -30.659001 2.803553 -5.237143 -30.787812 -8.600567 -47.518692 0.000089 -74.195840 0.000099 -121.072917 -1.828571 39.096088 -1.551309 2.457234 -39.233720 2.945720 5.080961 -60.185195 0.514023 2.401596 -24.158826 -0.000001 -0.000001 0.000001 2.150119 2.187401 2.806830 19.473177 -1.474900 7.636917 -4.536186 -9.613104 1.492974 0.000001 -0.000000 -0.000001 -6.831861 6.422596 10.984244 -41.528500 67.670325 66.078385 0.000347 97.997157 -0.000333 -58.848070 -18.425497 -29.142150 8.377138 -4.904123 11.021997 21.620182 -18.183898 -18.379201 -0.702871 -49.821206 -32.535145 -0.000003 -0.000002 -0.000003 -1.068867 1.462973 14.644428 1.280671 -3.209429 43.498791 0.615630 -2.316070 29.767819 -0.000000 -0.000000 0.000001 -29.821350 4.174420 1.978353 63.311803 4.124880 1.937360 -5.567861 6.917029 -2.912483 -8.675189 0.064762 -0.299136 0.000000 -0.000002 0.000000 -7.604511 -11.043453 -10.309844 83.406145 -3.471663 2.018012 1.353048 -9.351489 11.852705 -52.980329 -9.442806 7.874697 0.000000 -0.000001 -0.000000 
75.234100 77.066528 4.758692 -29.470149 -54.655191 -23.176148 8.158614 4.274639 -3.047379 10.854172 3.269494 -0.131572 10.849774 3.242558 -0.116270 4.346345 9.118126 -1.087468 20.683648 16.631152 -4.103153 0.000001 -0.000001 0.000001 -30.317765 3.114635 -6.281923 -29.502398 -9.093817 -46.458066 0.000133 -74.507043 0.000143 -122.096052 -3.075745 38.208450 -1.598240 2.410003 -39.316963 2.945732 5.080975 -60.185182 0.514021 2.401596 -24.158825 0.000004 -0.000001 0.000001 2.067662 1.939834 2.795245 19.473173 -1.474908 7.636919 -4.536186 -9.613105 1.492976 -0.000000 -0.000001 0.000000 -5.772431 6.509257 10.792156 -40.667469 67.762061 64.242813 0.000434 97.787094 -0.000433 -58.751184 -18.854660 -28.014863 8.377140 -4.904124 11.021997 21.620180 -18.183900 -18.379204 -0.702874 -49.821206 -32.535148 0.000001 0.000000 -0.000002 -1.073688 1.455521 14.718052 1.300532 -3.230201 43.852359 0.615630 -2.316070 29.767822 -0.000000 -0.000000 0.000000 -33.184385 5.143139 -1.080854 54.721413 5.262082 1.581110 4.545265 5.836697 -4.554814 -5.892662 -1.014416 4.645881 0.000000 -0.000003 0.000000 -4.485002 -10.674455 -6.095651 75.716192 3.300343 4.350056 9.122085 -5.400142 10.778478 -67.356559 9.472806 -3.692873 0.000000 -0.000001 -0.000000 
81.786285 78.716965 4.718357 -26.024310 -54.821854 -19.627218 6.694686 4.262065 -3.218213 10.780740 3.307652 -0.161553 10.775347 3.289669 -0.139016 4.669759 9.070525 -1.334344 21.234464 15.736629 -4.275973 -0.000001 0.000000 -0.000000 -29.919210 3.201912 -7.739959 -29.362106 -9.813595 -45.834924 0.000387 -73.965608 0.000389 -122.652862 -3.755748 37.408222 -1.645312 2.362897 -39.400250 2.945725 5.080981 -60.185182 0.514019 2.401596 -24.158826 0.000000 0.000002 -0.000000 1.985959 1.691834 2.783890 19.473177 -1.474901 7.636916 -4.536184 -9.613101 1.492977 -0.000002 0.000000 -0.000001 -4.716496 6.866141 10.638949 -39.825569 67.590193 61.680413 0.000245 97.549329 -0.000232 -58.960891 -19.477046 -27.265080 8.377138 -4.904124 11.021995 21.620187 -18.183902 -18.379204 -0.702874 -49.821206 -32.535145 -0.000002 0.000000 -0.000001 -1.078499 1.448053 14.791680 1.320548 -3.250820 44.205951 0.615631 -2.316070 29.767815 -0.000000 -0.000000 -0.000000 -34.899681 4.663097 -3.253647 44.858715 4.778549 1.748561 13.544589 0.132975 -11.230183 -2.432419 -1.787800 10.342368 0.000000 -0.000003 0.000000 -2.566209 -10.204228 -0.511874 72.309403 4.098062 5.470802 2.502425 -0.508337 0.199853 -54.916558 12.398540 -11.266356 0.000000 0.000001 -0.000000 
88.434181 79.705009 4.747909 -22.627081 -53.920085 -16.297634 5.668148 3.500639 -3.060738 10.677887 3.291871 -0.096945 10.666492 3.281865 -0.073218 4.591778 8.977548 -1.464004 21.018884 14.769644 -4.246746 -0.000002 -0.000001 0.000001 -29.557555 3.048713 -9.008297 -30.244918 -10.907687 -45.903048 0.000044 -72.650127 0.000068 -122.725358 -3.879486 36.760030 -1.692521 2.315934 -39.483561 2.945741 5.080970 -60.185202 0.514024 2.401596 -24.158830 0.000003 0.000001 -0.000002 1.903984 1.443978 2.772217 19.473178 -1.474906 7.636919 -4.536184 -9.613101 1.492976 -0.000001 -0.000004 0.000000 -3.665274 7.458861 10.602274 -39.318339 66.854008 59.149384 0.000373 97.560250 -0.000336 -59.147560 -20.226190 -26.981262 8.377139 -4.904124 11.021997 21.620183 -18.183900 -18.379202 -0.702871 -49.821206 -32.535148 0.000000 -0.000002 -0.000001 -1.083286 1.440600 14.865314 1.340638 -3.271355 44.559546 0.615631 -2.316071 29.767815 -0.000000 -0.000000 0.000000 -33.081014 4.406669 -3.239700 34.475376 -8.293609 -0.432273 15.716136 -2.510266 -21.735412 1.354827 -0.787928 6.907302 -0.000000 -0.000001 -0.000001 -2.486699 -10.895077 3.937704 68.319473 -0.457712 2.428361 -3.204245 -3.943183 -5.018566 -51.852945 1.897809 -3.582310 -0.000000 -0.000001 -0.000000 
95.425629 80.192940 4.535100 -20.820117 -52.418796 -14.945241 5.418263 2.604297 -2.200647 10.440559 3.305911 -0.081988 10.425573 3.300292 -0.064894 4.120564 8.775619 -1.143668 20.764045 13.887896 -4.025909 -0.000001 0.000001 0.000000 -29.301696 2.855246 -9.440851 -31.528918 -12.536043 -46.746361 0.000060 -70.781838 0.000062 -122.708733 -3.738937 36.180308 -1.739873 2.269112 -39.566879 2.945737 5.080967 -60.185195 0.514025 2.401595 -24.158828 -0.000002 0.000000 0.000001 1.821735 1.196219 2.760231 19.473180 -1.474905 7.636916 -4.536184 -9.613105 1.492976 0.000001 0.000000 -0.000001 -2.612580 7.984360 10.616248 -39.806944 65.454379 58.000279 0.000449 97.982233 -0.000460 -59.044301 -21.189064 -27.121839 8.377140 -4.904124 11.021997 21.620178 -18.183900 -18.379201 -0.702874 -49.821210 -32.535145 -0.000000 -0.000001 -0.000001 -1.088073 1.433137 14.938947 1.360866 -3.291757 44.913166 0.615630 -2.316070 29.767815 0.000000 -0.000000 -0.000000 -32.420722 3.342343 -4.379680 38.584903 -5.722724 0.042539 10.455891 -1.212601 -21.728666 0.176325 -0.656787 6.280155 -0.000000 -0.000001 0.000001 -2.110327 -11.096015 4.693800 63.951519 -6.046807 -1.096937 -15.844417 -10.004070 1.577677 -35.530617 -0.016168 0.599743 -0.000000 0.000001 0.000000 
102.782303 79.966873 4.187579 -20.501559 -51.575219 -15.314956 5.644840 2.083681 -1.080967 10.067198 3.398317 -0.202467 10.055678 3.393750 -0.195960 3.536265 8.509792 -0.333810 21.248527 13.391119 -3.869005 -0.000000 0.000001 0.000000 -29.152969 2.938765 -8.826482 -32.580125 -14.563326 -48.172218 0.000067 -68.784506 0.000066 -122.930551 -3.657423 35.753284 -1.787373 2.222411 -39.650228 2.945731 5.080962 -60.185223 0.514021 2.401596 -24.158828 -0.000003 -0.000001 -0.000002 1.739210 0.948564 2.747916 19.473175 -1.474905 7.636917 -4.536184 -9.613104 1.492976 0.000002 0.000000 0.000000 -1.557736 8.295715 10.681445 -41.229307 63.720378 58.464910 0.000013 98.710946 0.000003 -58.881353 -22.408579 -27.577840 8.377139 -4.904124 11.021995 21.620180 -18.183902 -18.379204 -0.702871 -49.821206 -32.535145 -0.000002 0.000001 0.000001 -1.092861 1.425667 15.012602 1.381243 -3.312030 45.266778 0.615631 -2.316070 29.767822 -0.000000 -0.000000 0.000001 -32.175911 2.208379 -3.595904 48.218164 -6.754599 0.482913 2.399223 -0.060592 -16.959068 -1.027787 -0.853469 7.150572 0.000000 -0.000000 -0.000000 2.338754 -12.622698 8.359002 54.020198 -4.161774 -2.465882 -32.213368 -14.871680 -11.593003 -25.765248 -0.000011 -0.000008 0.000000 0.000001 0.000000 
110.130890 79.270309 4.002053 -20.431806 -52.183625 -16.082879 5.602649 1.950012 -0.195340 9.717281 3.534274 -0.406933 9.713527 3.529473 -0.407482 3.178244 8.311163 0.632906 22.665284 13.483103 -4.105592 -0.000003 -0.000000 0.000002 -29.084277 3.462190 -7.584451 -33.060807 -16.321661 -49.561089 -0.000018 -67.502480 -0.000027 -123.344679 -3.840014 35.879882 -1.835028 2.175847 -39.733608 2.945724 5.080967 -60.185189 0.514021 2.401595 -24.158823 0.000000 -0.000001 -0.000003 1.656409 0.701037 2.735276 19.473178 -1.474901 7.636918 -4.536183 -9.613105 1.492977 -0.000003 0.000004 -0.000000 -0.512973 8.601322 10.901747 -42.945200 62.284270 59.556183 -0.000094 99.542631 0.000105 -59.180884 -23.777007 -28.245745 8.377139 -4.904124 11.021997 21.620180 -18.183902 -18.379204 -0.702872 -49.821213 -32.535145 -0.000000 -0.000003 -0.000001 -1.097591 1.418173 15.086201 1.401736 -3.332170 45.620449 0.615630 -2.316070 29.767815 -0.000000 -0.000000 -0.000000 -31.910145 1.052301 -1.471944 59.751000 -6.960540 1.565351 -4.290806 -0.200315 -11.738505 -4.994398 -1.501395 9.437621 0.000001 0.000000 0.000001 -0.263254 -11.927080 7.736347 50.286342 -1.249524 -2.977066 -36.840825 -15.586435 -17.360510 -11.463627 -0.000028 -0.000003 0.000000 -0.000001 0.000000 
116.888374 79.087967 3.863723 -19.962015 -53.814121 -16.450027 4.778207 1.856473 0.206909 9.585782 3.635381 -0.573694 9.587467 3.630534 -0.571973 3.229469 8.292637 1.344286 24.707542 14.101279 -4.928256 0.000001 0.000001 0.000001 -29.040479 4.348842 -6.416723 -32.822703 -16.904906 -50.028482 0.000075 -68.049892 0.000069 -123.676066 -4.406733 37.088890 -1.882823 2.129419 -39.817011 2.945736 5.080970 -60.185195 0.514015 2.401596 -24.158826 -0.000004 -0.000001 -0.000001 1.573326 0.453648 2.722298 19.473175 -1.474903 7.636916 -4.536185 -9.613104 1.492976 -0.000002 0.000002 -0.000001 0.502982 9.233615 11.361609 -44.533462 61.742608 60.272000 0.000081 100.422209 -0.000075 -60.299082 -25.149347 -29.132321 8.377139 -4.904123 11.021998 21.620180 -18.183902 -18.379202 -0.702873 -49.821210 -32.535152 -0.000001 0.000002 0.000002 -1.102369 1.410696 15.159834 1.422347 -3.352201 45.974082 0.615630 -2.316070 29.767822 -0.000000 -0.000000 0.000000 -29.830995 -0.740559 1.436615 67.392295 -1.903318 3.114696 -4.785449 -0.288052 -8.482501 -18.734411 -1.923774 4.672462 -0.000000 0.000002 -0.000000 -9.544200 -11.773466 2.916818 54.010083 -1.114344 -2.678118 -31.960753 -12.455916 -13.930620 -8.235974 -0.000038 0.000005 -0.000000 -0.000000 0.000001 
116.888374 79.087967 3.863723 -19.962015 -53.814121 -16.450027 4.778207 1.856473 0.206909 9.585782 3.635381 -0.573694 9.587467 3.630534 -0.571973 3.229469 8.292637 1.344286 24.707542 14.101279 -4.928256 0.000001 0.000001 0.000001 -29.040479 4.348842 -6.416723 -32.822703 -16.904906 -50.028482 0.000075 -68.049892 0.000069 -123.676066 -4.406733 37.088890 -1.882823 2.129419 -39.817011 2.945736 5.080970 -60.185195 0.514015 2.401596 -24.158826 -0.000004 -0.000001 -0.000001 1.573326 0.453648 2.722298 19.473175 -1.474903 7.636916 -4.536185 -9.613104 1.492976 -0.000002 0.000002 -0.000001 0.502982 9.233615 11.361609 -44.533462 61.742608 60.272000 0.000081 100.422209 -0.000075 -60.299082 -25.149347 -29.132321 8.377139 -4.904123 11.021998 21.620180 -18.183902 -18.379202 -0.702873 -49.821210 -32.535152 -0.000001 0.000002 0.000002 -1.102369 1.410696 15.159834 1.422347 -3.352201 45.974082 0.615630 -2.316070 29.767822 -0.000000 -0.000000 0.000000 -29.830995 -0.740559 1.436615 67.392295 -1.903318 3.114696 -4.785449 -0.288052 -8.482501 -18.734411 -1.923774 4.672462 -0.000000 0.000002 -0.000000 -9.544200 -11.773466 2.916818 54.010083 -1.114344 -2.678118 -31.960753 -12.455916 -13.930620 -8.235974 -0.000038 0.000005 -0.000000 -0.000000 0.000001 
